<svg xmlns="http://www.w3.org/2000/svg" version="1.1" xmlns:xlink="http://www.w3.org/1999/xlink" xmlns:svgjs="http://svgjs.dev/svgjs" width="100%" height="100%" viewBox="0 0 1000 600"><rect width="1000" height="600" x="0" y="0" fill="#ffffff"/><g><circle r="166.66666666666666" cx="438.11844889322913" cy="460.3406994240936" fill="#cccccc" transform="matrix(0.46048696606112505,0,0,0.460486966061125,0,88.01911854221734)"/><path d="M468.9222774863051 535.340723286045L468.9222774863051 535.340723286045L407.5293538317486 535.340723286045Q404.2157927349509 535.340723286045 404.2157927349509 532.0271621892473L404.2157927349509 532.0271621892473L404.2157927349509 521.1967263821217Q404.2157927349509 517.8831652853241 407.5293538317486 517.8831652853241L407.5293538317486 517.8831652853241L425.6312153790691 517.8831652853241L425.6312153790691 403.01304726300543L395.80916550789027 403.01304726300543L396.91368587348944 420.2558374148599Q397.12845372235597 423.5693985116576 393.8148926255583 423.5693985116576L393.8148926255583 423.5693985116576L380.3458803895012 423.5693985116576Q377.03231929270356 423.5693985116576 377.03231929270356 420.2558374148599L377.03231929270356 420.2558374148599L377.03231929270356 388.65428251021564Q377.03231929270356 385.340721413418 380.3458803895012 385.340721413418L380.3458803895012 385.340721413418L495.89098307968595 385.340721413418Q499.20454417648364 385.340721413418 499.20454417648364 388.65428251021564L499.20454417648364 388.65428251021564L499.20454417648364 420.2558374148599Q499.20454417648364 423.5693985116576 495.89098307968595 423.5693985116576L495.89098307968595 423.5693985116576L482.3912897223622 423.5693985116576Q479.0777286255646 423.5693985116576 479.3231775956977 420.2558374148599L479.3231775956977 420.2558374148599L480.42769796129693 403.01304726300543L450.60564809011805 403.01304726300543L450.60564809011805 517.8831652853241L468.9222774863051 517.8831652853241Q472.23583858310275 517.8831652853241 472.23583858310275 521.1967263821217L472.23583858310275 521.1967263821217L472.23583858310275 532.0271621892473Q472.23583858310275 535.340723286045 468.9222774863051 535.340723286045Z " fill="#050505" transform="matrix(0.46048696606112505,0,0,0.460486966061125,0,88.01911854221734)"/><path d="M688.1184323234311 395.52525469085424L688.1184323234311 395.52525469085424L688.1184323234311 387.62273297115274Q688.1184323234311 385.3407213515598 690.4004439430241 385.3407213515598L690.4004439430241 385.3407213515598L713.3684682994826 385.3407213515598Q715.6504799190756 385.3407213515598 715.6504799190756 387.62273297115274L715.6504799190756 387.62273297115274L715.6504799190756 434.46736038446335Q724.1657640181122 421.85290726504684 739.2312666548693 421.85290726504684L739.2312666548693 421.85290726504684Q762.812053390663 421.85290726504684 762.812053390663 447.7157056204335L762.812053390663 447.7157056204335L762.812053390663 486.8057194745718L771.7921917085056 486.8057194745718Q774.0742033280985 486.8057194745718 774.0742033280985 489.0877310941647L774.0742033280985 489.0877310941647L774.0742033280985 496.5465283322787Q774.0742033280985 498.8285399518716 771.7921917085056 498.8285399518716L771.7921917085056 498.8285399518716L738.470596115005 498.8285399518716Q736.188584495412 498.8285399518716 736.188584495412 496.5465283322787L736.188584495412 496.5465283322787L736.188584495412 489.0877310941647Q736.188584495412 486.8057194745718 738.470596115005 486.8057194745718L738.470596115005 486.8057194745718L745.7814851925898 486.8057194745718L745.7814851925898 455.3224110190766Q745.7814851925898 445.7295103218989 743.3515654124676 441.31339524324216Q740.9005158951271 436.91840990180395 733.293810496484 436.91840990180395Q725.6871050978408 436.91840990180395 720.6793573770674 441.4824331409898Q715.6504799190756 446.0464563801757 715.6504799190756 451.8148746408134L715.6504799190756 451.8148746408134L715.6504799190756 486.8057194745718L724.9264345579766 486.8057194745718Q727.2084461775694 486.8057194745718 727.2084461775694 489.0877310941647L727.2084461775694 489.0877310941647L727.2084461775694 496.5465283322787Q727.2084461775694 498.8285399518716 724.9264345579766 498.8285399518716L724.9264345579766 498.8285399518716L690.4004439430241 498.8285399518716Q688.1184323234311 498.8285399518716 688.1184323234311 496.5465283322787L688.1184323234311 496.5465283322787L688.1184323234311 489.0877310941647Q688.1184323234311 486.8057194745718 690.4004439430241 486.8057194745718L690.4004439430241 486.8057194745718L698.6199117210024 486.8057194745718L698.6199117210024 397.8072663104472L690.4004439430241 397.8072663104472Q688.1184323234311 397.8072663104472 688.1184323234311 395.52525469085424ZM816.5238453999709 500.6456973526586L816.5238453999709 500.6456973526586Q798.4156606037566 500.6456973526586 789.9637657163753 490.08082874343205Q781.5330005662124 479.51596013420544 781.5330005662124 462.0839269289816Q781.5330005662124 444.67302346097625 790.513138884055 433.2629653630115Q799.4721474646792 421.85290726504684 816.3759372394417 421.85290726504684L816.3759372394417 421.85290726504684Q824.7433131779492 421.85290726504684 830.7441585479899 424.95897863615943Q836.7450039180305 428.0861797444905 839.9567239752354 433.4108735235407L839.9567239752354 433.4108735235407Q846.04208829415 443.76444476058276 846.04208829415 457.28747658039276L846.04208829415 457.28747658039276Q846.04208829415 463.6897869575841 845.4293259148149 464.3025493369192Q844.8165635354796 464.89418197903586 843.1473142952218 464.89418197903586L843.1473142952218 464.89418197903586L798.4156606037566 464.89418197903586Q799.1763311436208 475.86051559541306 803.8248733316806 481.86136096545374Q808.4522857825218 487.8833360727129 819.8623438804865 487.8833360727129L819.8623438804865 487.8833360727129Q828.229719818994 487.8833360727129 837.0619499763073 483.9109454756437L837.0619499763073 483.9109454756437Q839.1960534353711 482.85445861472107 840.1046321357646 485.136470234314L840.1046321357646 485.136470234314L842.9994061346927 492.13041325362195Q843.760076674557 493.9687003916274 841.6259732154932 495.17309541307924L841.6259732154932 495.17309541307924Q831.589348036728 500.6456973526586 816.5238453999709 500.6456973526586ZM798.4156606037566 453.65316177881886L798.4156606037566 453.65316177881886L830.0680069569994 453.65316177881886Q830.3638232780577 434.636398282211 815.1504124807715 434.636398282211L815.1504124807715 434.636398282211Q806.1702741629289 434.636398282211 802.4514404124811 440.34142733119336Q798.7114769248149 446.0464563801757 798.4156606037566 453.65316177881886ZM889.4003090664157 395.52525469085424L889.4003090664157 395.52525469085424Q908.8607970446111 394.61667599046075 918.3057895812597 394.61667599046075Q927.7296523806898 394.61667599046075 932.3781945687494 394.9970112603929Q937.0056070195907 395.37734653032504 942.943063177976 396.60287128899535Q948.8805193363614 397.8072663104472 953.5079317872026 399.8568508206371Q958.1564739752623 401.9275650680455 962.8684053749773 405.7309177673671Q967.5803367746923 409.53427046668867 970.7920568318973 414.5420181874621L970.7920568318973 414.5420181874621Q977.7859998512054 426.0999844459559 977.7859998512054 444.35607740269944L977.7859998512054 444.35607740269944Q977.7859998512054 471.90925473556234 962.572589053919 485.368897343717Q947.3591782566327 498.8285399518716 921.0315256824401 498.8285399518716L921.0315256824401 498.8285399518716L889.4003090664157 498.8285399518716Q887.1182974468229 498.8285399518716 887.1182974468229 496.5465283322787L887.1182974468229 496.5465283322787L887.1182974468229 489.0877310941647Q887.1182974468229 486.8057194745718 889.4003090664157 486.8057194745718L889.4003090664157 486.8057194745718L897.3028307861173 486.8057194745718L897.3028307861173 407.8438914892124L889.4003090664157 407.8438914892124Q887.1182974468229 407.8438914892124 887.1182974468229 405.5618798696195L887.1182974468229 405.5618798696195L887.1182974468229 397.8072663104472Q887.1182974468229 395.52525469085424 889.4003090664157 395.52525469085424ZM924.3911539001742 486.953627635101Q941.125905777189 486.953627635101 950.3173414672162 476.00842375594226Q959.5299068944616 465.06321987678353 959.5299068944616 446.0464563801757Q959.5299068944616 427.02969288356786 950.9301038465513 417.14097586533177Q942.3303007986409 407.25225884709573 924.0742078418974 407.25225884709573L924.0742078418974 407.25225884709573L914.3333989841905 407.25225884709573L914.3333989841905 486.953627635101L924.3911539001742 486.953627635101ZM1024.6306272645159 500.6456973526586L1024.6306272645159 500.6456973526586Q1006.5435722055199 500.6456973526586 998.0916773181386 490.08082874343205Q989.6397824307575 479.51596013420544 989.6397824307575 462.0839269289816Q989.6397824307575 444.67302346097625 998.6199207486001 433.2629653630115Q1007.6000590664426 421.85290726504684 1024.4827191039867 421.85290726504684L1024.4827191039867 421.85290726504684Q1032.850095042494 421.85290726504684 1038.8720701497532 424.95897863615943Q1044.8729155197939 428.0861797444905 1048.0635058397804 433.4108735235407L1048.0635058397804 433.4108735235407Q1054.148870158695 443.76444476058276 1054.148870158695 457.28747658039276L1054.148870158695 457.28747658039276Q1054.148870158695 463.6897869575841 1053.5361077793598 464.3025493369192Q1052.944475137243 464.89418197903586 1051.254096159767 464.89418197903586L1051.254096159767 464.89418197903586L1006.5435722055199 464.89418197903586Q1007.3042427453843 475.86051559541306 1011.9316551962256 481.86136096545374Q1016.5801973842852 487.8833360727129 1027.99025548225 487.8833360727129L1027.99025548225 487.8833360727129Q1036.3576314207573 487.8833360727129 1045.1687318408524 483.9109454756437L1045.1687318408524 483.9109454756437Q1047.302835299916 482.85445861472107 1048.2114140003096 485.136470234314L1048.2114140003096 485.136470234314L1051.1061879992376 492.13041325362195Q1051.866858539102 493.9687003916274 1049.7327550800383 495.17309541307924L1049.7327550800383 495.17309541307924Q1039.696129901273 500.6456973526586 1024.6306272645159 500.6456973526586ZM1006.5435722055199 453.65316177881886L1006.5435722055199 453.65316177881886L1038.1747888215446 453.65316177881886Q1038.4917348798213 434.636398282211 1023.2783240825349 434.636398282211L1023.2783240825349 434.636398282211Q1014.2981857646923 434.636398282211 1010.5582222770261 440.34142733119336Q1006.8393885265783 446.0464563801757 1006.5435722055199 453.65316177881886ZM1083.8150212134033 425.6562599643684L1083.8150212134033 425.6562599643684L1101.4583517908115 481.9458799143276L1117.4324331279622 435.988701464192L1109.6778195687898 435.988701464192Q1107.3958079491968 435.988701464192 1107.3958079491968 433.70668984459905L1107.3958079491968 433.70668984459905L1107.3958079491968 425.80416812489756Q1107.3958079491968 423.5221565053046 1109.6778195687898 423.5221565053046L1109.6778195687898 423.5221565053046L1131.885173385384 423.5221565053046Q1133.7234605233896 423.5221565053046 1134.3362229027246 424.5786433662273Q1134.9278555448413 425.6562599643684 1134.9278555448413 426.4803197158881Q1134.9278555448413 427.3255092046262 1134.632039223783 428.0861797444905L1134.632039223783 428.0861797444905L1108.6213327078672 496.6944364928079Q1108.008570328532 498.8285399518716 1105.5786505484098 498.8285399518716L1105.5786505484098 498.8285399518716L1092.4993432101874 498.8285399518716Q1090.3652397511237 498.8285399518716 1089.4566610507302 496.6944364928079L1089.4566610507302 496.6944364928079L1068.601610416117 435.988701464192L1060.9949050174737 435.988701464192Q1058.7128933978809 435.988701464192 1058.7128933978809 433.70668984459905L1058.7128933978809 433.70668984459905L1058.7128933978809 425.80416812489756Q1058.7128933978809 423.5221565053046 1060.9949050174737 423.5221565053046L1060.9949050174737 423.5221565053046L1080.920247214475 423.5221565053046Q1083.202258834068 423.5221565053046 1083.8150212134033 425.6562599643684ZM1177.9902599960487 500.6456973526586L1177.9902599960487 500.6456973526586Q1159.8820751998346 500.6456973526586 1151.4513100496715 490.08082874343205Q1142.9994151622905 479.51596013420544 1142.9994151622905 462.0839269289816Q1142.9994151622905 444.67302346097625 1151.9795534801328 433.2629653630115Q1160.9596917979757 421.85290726504684 1177.8423518355196 421.85290726504684L1177.8423518355196 421.85290726504684Q1186.209727774027 421.85290726504684 1192.210573144068 424.95897863615943Q1198.232548251327 428.0861797444905 1201.4231385713133 433.4108735235407L1201.4231385713133 433.4108735235407Q1207.5085028902279 443.76444476058276 1207.5085028902279 457.28747658039276L1207.5085028902279 457.28747658039276Q1207.5085028902279 463.6897869575841 1206.8957405108927 464.3025493369192Q1206.2829781315577 464.89418197903586 1204.6137288912998 464.89418197903586L1204.6137288912998 464.89418197903586L1159.8820751998346 464.89418197903586Q1160.6427457396987 475.86051559541306 1165.2912879277585 481.86136096545374Q1169.9187003785996 487.8833360727129 1181.3287584765644 487.8833360727129L1181.3287584765644 487.8833360727129Q1189.6961344150718 487.8833360727129 1198.5283645723853 483.9109454756437L1198.5283645723853 483.9109454756437Q1200.662468031449 482.85445861472107 1201.5710467318427 485.136470234314L1201.5710467318427 485.136470234314L1204.4658207307707 492.13041325362195Q1205.226491270635 493.9687003916274 1203.0923878115711 495.17309541307924L1203.0923878115711 495.17309541307924Q1193.055762632806 500.6456973526586 1177.9902599960487 500.6456973526586ZM1159.8820751998346 453.65316177881886L1159.8820751998346 453.65316177881886L1191.5344215530772 453.65316177881886Q1191.8302378741355 434.636398282211 1176.6168270768494 434.636398282211L1176.6168270768494 434.636398282211Q1167.6366887590068 434.636398282211 1163.917855008559 440.34142733119336Q1160.1990212581113 446.0464563801757 1159.8820751998346 453.65316177881886ZM1243.4079264243796 387.62273297115274L1243.4079264243796 387.62273297115274L1243.4079264243796 486.8057194745718L1253.0008271215574 486.8057194745718Q1255.2828387411505 486.8057194745718 1255.2828387411505 489.0877310941647L1255.2828387411505 489.0877310941647L1255.2828387411505 496.5465283322787Q1255.2828387411505 498.8285399518716 1253.0008271215574 498.8285399518716L1253.0008271215574 498.8285399518716L1216.7844575291288 498.8285399518716Q1214.5024459095357 498.8285399518716 1214.5024459095357 496.5465283322787L1214.5024459095357 496.5465283322787L1214.5024459095357 489.0877310941647Q1214.5024459095357 486.8057194745718 1216.7844575291288 486.8057194745718L1216.7844575291288 486.8057194745718L1226.3773582263066 486.8057194745718L1226.3773582263066 397.8072663104472L1218.157890448328 397.8072663104472Q1215.8758788287355 397.8072663104472 1215.8758788287355 395.52525469085424L1215.8758788287355 395.52525469085424L1215.8758788287355 387.62273297115274Q1215.8758788287355 385.3407213515598 1218.157890448328 385.3407213515598L1218.157890448328 385.3407213515598L1241.125914804787 385.3407213515598Q1243.4079264243796 385.3407213515598 1243.4079264243796 387.62273297115274ZM1262.1288735999292 462.3163540383846L1262.1288735999292 462.3163540383846Q1262.1288735999292 450.9062959404199 1265.615280240974 442.53892000191246Q1269.1228166192373 434.171544063405 1274.7433267193458 429.9033371452775L1274.7433267193458 429.9033371452775Q1285.5406224379753 421.85290726504684 1298.1762052946103 421.85290726504684L1298.1762052946103 421.85290726504684Q1307.4521599335112 421.85290726504684 1313.8544703107025 424.7476812639749Q1320.2356509506753 427.62132552568454 1323.8065765405938 431.4246782250061Q1327.3775021305125 435.2280309243277 1329.8919408595086 442.3910118413833Q1332.4063795885045 449.53286302122046 1332.4063795885045 459.12576371839816L1332.4063795885045 459.12576371839816Q1332.4063795885045 479.51596013420544 1322.1373273003362 490.08082874343205Q1311.8682750121677 500.6456973526586 1295.8941936750173 500.6456973526586Q1279.9201123378666 500.6456973526586 1271.024492968898 490.98940744382554Q1262.1288735999292 481.3331175349924 1262.1288735999292 462.3163540383846ZM1297.1197184336877 488.17915239377123L1297.1197184336877 488.17915239377123Q1306.2477649120594 488.17915239377123 1310.4314528813131 481.41763648386626Q1314.6151408505668 474.6349908367428 1314.6151408505668 461.25986717746196Q1314.6151408505668 447.8636137809627 1310.4314528813131 441.10209787105765Q1306.2477649120594 434.3194522239342 1296.802772375411 434.3194522239342L1296.802772375411 434.3194522239342Q1279.3073499585316 434.3194522239342 1279.3073499585316 458.977855557869L1279.3073499585316 458.977855557869Q1279.3073499585316 488.17915239377123 1297.1197184336877 488.17915239377123ZM1343.203675307134 521.7965643083303L1351.2752349245832 521.7965643083303L1351.2752349245832 435.988701464192L1343.0557671466047 435.988701464192Q1340.7737555270116 435.988701464192 1340.7737555270116 433.70668984459905L1340.7737555270116 433.70668984459905L1340.7737555270116 425.80416812489756Q1340.7737555270116 423.5221565053046 1343.0557671466047 423.5221565053046L1343.0557671466047 423.5221565053046L1363.7417798834704 423.5221565053046Q1365.5800670214758 423.5221565053046 1366.0237915030632 425.80416812489756L1366.0237915030632 425.80416812489756L1367.545132582792 434.93221460326936Q1375.2997461419643 421.85290726504684 1391.4428653768625 421.85290726504684L1391.4428653768625 421.85290726504684Q1405.4307514154784 421.85290726504684 1413.33327313518 431.04434295507394Q1421.2569245920997 440.2569083823195 1421.2569245920997 458.2171850180047L1421.2569245920997 458.2171850180047Q1421.2569245920997 479.959684615793 1411.9809699531988 490.313255852835Q1402.6838855770795 500.6456973526586 1388.0832371591284 500.6456973526586L1388.0832371591284 500.6456973526586Q1376.0604166818287 500.6456973526586 1368.3058031226562 494.26451671268575L1368.3058031226562 494.26451671268575L1368.3058031226562 521.648656147801L1384.427792620336 521.648656147801Q1386.709804239929 521.648656147801 1386.709804239929 523.930667767394L1386.709804239929 523.930667767394L1386.709804239929 531.537373166037Q1386.709804239929 533.8193847856301 1384.427792620336 533.8193847856301L1384.427792620336 533.8193847856301L1343.203675307134 533.8193847856301Q1340.921663687541 533.8193847856301 1340.921663687541 531.537373166037L1340.921663687541 531.537373166037L1340.921663687541 524.0785759279231Q1340.921663687541 521.7965643083303 1343.203675307134 521.7965643083303L1343.203675307134 521.7965643083303ZM1368.3058031226562 452.5755451806777L1368.3058031226562 452.5755451806777L1368.3058031226562 481.62893385605076Q1370.7357229027782 484.0799833733913 1375.7646003607704 486.0450489347075Q1380.793477818762 488.0312442332421 1385.6533173790062 488.0312442332421L1385.6533173790062 488.0312442332421Q1394.4855475363197 488.0312442332421 1399.2608681476902 482.00926912598294Q1404.0573184962789 476.00842375594226 1404.0573184962789 461.70359165904944L1404.0573184962789 461.70359165904944Q1404.0573184962789 442.2431036808541 1395.5420343972426 437.82698860219745L1395.5420343972426 437.82698860219745Q1391.88658985845 435.8407933036628 1385.505409218477 435.8407933036628Q1379.1030988412858 435.8407933036628 1373.7150158505804 440.34142733119336Q1368.3058031226562 444.8209316215054 1368.3058031226562 452.5755451806777ZM1466.8971569839584 500.6456973526586L1466.8971569839584 500.6456973526586Q1448.7889721877443 500.6456973526586 1440.337077300363 490.08082874343205Q1431.9063121502002 479.51596013420544 1431.9063121502002 462.0839269289816Q1431.9063121502002 444.67302346097625 1440.886450468043 433.2629653630115Q1449.845459048667 421.85290726504684 1466.7492488234295 421.85290726504684L1466.7492488234295 421.85290726504684Q1475.116624761937 421.85290726504684 1481.1174701319776 424.95897863615943Q1487.1183155020183 428.0861797444905 1490.3300355592232 433.4108735235407L1490.3300355592232 433.4108735235407Q1496.4153998781378 443.76444476058276 1496.4153998781378 457.28747658039276L1496.4153998781378 457.28747658039276Q1496.4153998781378 463.6897869575841 1495.8026374988024 464.3025493369192Q1495.1898751194674 464.89418197903586 1493.5206258792098 464.89418197903586L1493.5206258792098 464.89418197903586L1448.7889721877443 464.89418197903586Q1449.5496427276087 475.86051559541306 1454.1981849156682 481.86136096545374Q1458.8255973665093 487.8833360727129 1470.2356554644741 487.8833360727129L1470.2356554644741 487.8833360727129Q1478.6030314029815 487.8833360727129 1487.4352615602952 483.9109454756437L1487.4352615602952 483.9109454756437Q1489.5693650193589 482.85445861472107 1490.4779437197524 485.136470234314L1490.4779437197524 485.136470234314L1493.3727177186804 492.13041325362195Q1494.1333882585448 493.9687003916274 1491.999284799481 495.17309541307924L1491.999284799481 495.17309541307924Q1481.9626596207156 500.6456973526586 1466.8971569839584 500.6456973526586ZM1448.7889721877443 453.65316177881886L1448.7889721877443 453.65316177881886L1480.4413185409871 453.65316177881886Q1480.7371348620454 434.636398282211 1465.523724064759 434.636398282211L1465.523724064759 434.636398282211Q1456.5435857469167 434.636398282211 1452.8247519964689 440.34142733119336Q1449.0847885088026 446.0464563801757 1448.7889721877443 453.65316177881886ZM1531.406244711896 436.60146384352714Q1533.9840726525474 430.5160995246126 1539.7736206504035 426.18450339482973Q1545.5420389110411 421.85290726504684 1552.38807376982 421.85290726504684Q1559.234108628599 421.85290726504684 1562.8895531673913 423.05730228649867L1562.8895531673913 423.05730228649867Q1564.7067105681783 423.6700646658338 1564.7067105681783 425.80416812489756L1564.7067105681783 425.80416812489756L1564.7067105681783 446.34227270123404Q1564.7067105681783 448.624284320827 1562.4246989485853 448.624284320827L1562.4246989485853 448.624284320827L1552.5359819303492 448.624284320827Q1550.2539703107561 448.624284320827 1550.423008208504 446.34227270123404L1550.423008208504 446.34227270123404L1551.0146408506205 437.51004254392063Q1550.2539703107561 437.36213438339144 1548.4368129099694 437.36213438339144L1548.4368129099694 437.36213438339144Q1541.4428698906615 437.36213438339144 1536.8788466514754 443.0671634323738Q1532.3148234122896 448.77219248135617 1532.3148234122896 458.36509317853387L1532.3148234122896 458.36509317853387L1532.3148234122896 486.8057194745718L1549.0495752893044 486.8057194745718Q1551.3315869088974 486.8057194745718 1551.3315869088974 489.0877310941647L1551.3315869088974 489.0877310941647L1551.3315869088974 496.5465283322787Q1551.3315869088974 498.8285399518716 1549.0495752893044 498.8285399518716L1549.0495752893044 498.8285399518716L1507.2126955967672 498.8285399518716Q1504.9306839771743 498.8285399518716 1504.9306839771743 496.5465283322787L1504.9306839771743 496.5465283322787L1504.9306839771743 489.0877310941647Q1504.9306839771743 486.8057194745718 1507.2126955967672 486.8057194745718L1507.2126955967672 486.8057194745718L1515.2631254769979 486.8057194745718L1515.2631254769979 435.988701464192L1507.064787436238 435.988701464192Q1504.7827758166452 435.988701464192 1504.7827758166452 433.70668984459905L1504.7827758166452 433.70668984459905L1504.7827758166452 425.80416812489756Q1504.7827758166452 423.5221565053046 1507.064787436238 423.5221565053046L1507.064787436238 423.5221565053046L1527.1380377937685 423.5221565053046Q1529.2721412528324 423.5221565053046 1529.7158657344198 425.80416812489756L1529.7158657344198 425.80416812489756L1531.406244711896 436.60146384352714ZM1605.9519576185987 496.5465283322787L1605.9519576185987 496.5465283322787L1605.9519576185987 489.0877310941647Q1605.9519576185987 486.8057194745718 1608.2339692381918 486.8057194745718L1608.2339692381918 486.8057194745718L1616.2843991184225 486.8057194745718L1616.2843991184225 407.8438914892124L1608.3818773987211 407.8438914892124Q1606.0998657791279 407.8438914892124 1606.0998657791279 405.5618798696195L1606.0998657791279 405.5618798696195L1606.0998657791279 397.8072663104472Q1606.0998657791279 395.37734653032504 1608.3818773987211 395.37734653032504L1608.3818773987211 395.37734653032504Q1626.6379703554646 394.61667599046075 1643.0557761742025 394.61667599046075Q1659.4947117301592 394.61667599046075 1669.2989097995212 400.93446741877824Q1679.124237606102 407.25225884709573 1679.124237606102 418.95813326611875L1679.124237606102 418.95813326611875Q1679.124237606102 427.4734173651554 1673.862933038707 433.7912087934729Q1668.622758208531 440.1090002217904 1661.4809070286935 443.0037742207184L1661.4809070286935 443.0037742207184Q1673.1867814477166 444.8209316215054 1679.356664715505 451.6669664802842Q1685.5054182460751 458.513001339063 1685.5054182460751 468.4017183572991L1685.5054182460751 468.4017183572991Q1685.5054182460751 481.3331175349924 1675.9336472861155 489.3201582035677Q1666.3407465889377 497.30719887214303 1650.5145734123164 498.36368573306567L1650.5145734123164 498.36368573306567Q1643.9854846118144 498.8285399518716 1629.5327443543924 498.8285399518716L1629.5327443543924 498.8285399518716L1608.2339692381918 498.8285399518716Q1605.9519576185987 498.8285399518716 1605.9519576185987 496.5465283322787ZM1644.2813009328727 450.9062959404199L1633.336097053714 450.9062959404199L1633.336097053714 487.1226655328486L1640.1821319124927 487.1226655328486Q1653.5572555717738 487.1226655328486 1660.9315338610138 482.85445861472107Q1668.3269418874725 478.58625169659354 1668.3269418874725 468.10590203624076L1668.3269418874725 468.10590203624076Q1668.3269418874725 450.9062959404199 1644.2813009328727 450.9062959404199L1644.2813009328727 450.9062959404199ZM1640.4779482335512 406.9353127888189L1633.336097053714 406.9353127888189L1633.336097053714 438.2707130837849L1639.1045153143516 438.2707130837849Q1661.628815189223 438.2707130837849 1661.628815189223 422.61357780491113L1661.628815189223 422.61357780491113Q1661.628815189223 413.7813476475977 1656.1562132496435 410.3583302182084Q1650.6624815728458 406.9353127888189 1640.4779482335512 406.9353127888189L1640.4779482335512 406.9353127888189ZM1720.6441712403628 387.62273297115274L1720.6441712403628 387.62273297115274L1720.6441712403628 486.8057194745718L1730.2370719375401 486.8057194745718Q1732.5190835571332 486.8057194745718 1732.5190835571332 489.0877310941647L1732.5190835571332 489.0877310941647L1732.5190835571332 496.5465283322787Q1732.5190835571332 498.8285399518716 1730.2370719375401 498.8285399518716L1730.2370719375401 498.8285399518716L1694.0207023451114 498.8285399518716Q1691.7386907255186 498.8285399518716 1691.7386907255186 496.5465283322787L1691.7386907255186 496.5465283322787L1691.7386907255186 489.0877310941647Q1691.7386907255186 486.8057194745718 1694.0207023451114 486.8057194745718L1694.0207023451114 486.8057194745718L1703.6136030422892 486.8057194745718L1703.6136030422892 397.8072663104472L1695.3941352643108 397.8072663104472Q1693.112123644718 397.8072663104472 1693.112123644718 395.52525469085424L1693.112123644718 395.52525469085424L1693.112123644718 387.62273297115274Q1693.112123644718 385.3407213515598 1695.3941352643108 385.3407213515598L1695.3941352643108 385.3407213515598L1718.3621596207693 385.3407213515598Q1720.6441712403628 385.3407213515598 1720.6441712403628 387.62273297115274ZM1739.3651184159119 462.3163540383846L1739.3651184159119 462.3163540383846Q1739.3651184159119 450.9062959404199 1742.8726547941749 442.53892000191246Q1746.35906143522 434.171544063405 1752.0007012725466 429.9033371452775L1752.0007012725466 429.9033371452775Q1762.7979969911764 421.85290726504684 1775.4124501105928 421.85290726504684L1775.4124501105928 421.85290726504684Q1784.7095344867123 421.85290726504684 1791.0907151266854 424.7476812639749Q1797.471895766658 427.62132552568454 1801.0639510937951 431.4246782250061Q1804.6348766837139 435.2280309243277 1807.1493154127095 442.3910118413833Q1809.6426244044872 449.53286302122046 1809.6426244044872 459.12576371839816L1809.6426244044872 459.12576371839816Q1809.6426244044872 479.51596013420544 1799.373572116319 490.08082874343205Q1789.1045198281506 500.6456973526586 1773.1304384910002 500.6456973526586Q1757.1563571538493 500.6456973526586 1748.2607377848806 490.98940744382554Q1739.3651184159119 481.3331175349924 1739.3651184159119 462.3163540383846ZM1774.3559632496701 488.17915239377123L1774.3559632496701 488.17915239377123Q1783.4840097280423 488.17915239377123 1787.667697697296 481.41763648386626Q1791.8513856665493 474.6349908367428 1791.8513856665493 461.25986717746196Q1791.8513856665493 447.8636137809627 1787.667697697296 441.10209787105765Q1783.4840097280423 434.3194522239342 1774.0601469286119 434.3194522239342L1774.0601469286119 434.3194522239342Q1756.5647245117327 434.3194522239342 1756.5647245117327 458.977855557869L1756.5647245117327 458.977855557869Q1756.5647245117327 488.17915239377123 1774.3559632496701 488.17915239377123ZM1897.8804070287476 435.988701464192L1889.5130310902398 435.988701464192L1889.5130310902398 489.9963097945582Q1889.5130310902398 499.7371186522651 1888.7523605503754 508.10449459077256L1888.7523605503754 508.10449459077256Q1887.547965528924 521.0358937684659 1879.2439788020718 528.1988746855216Q1870.961121812438 535.3407258653586 1855.747711015152 535.3407258653586Q1840.5343002178654 535.3407258653586 1830.1807289808237 530.7767026261728L1830.1807289808237 530.7767026261728Q1828.3635715800367 530.0160320863085 1828.9763339593717 527.7340204667155L1828.9763339593717 527.7340204667155L1831.702070060552 519.6624608492664Q1832.3148324398874 517.5494871274211 1834.7447522200093 518.4580658278146L1834.7447522200093 518.4580658278146Q1844.0418365961289 522.2614185271361 1853.5502183444326 522.2614185271361Q1863.0586000927367 522.2614185271361 1867.7705314924517 517.6973952879503Q1872.4824628921667 513.1333720487644 1872.4824628921667 501.5754057902705L1872.4824628921667 501.5754057902705L1872.4824628921667 489.7004934734999Q1865.784336193917 500.6456973526586 1850.8878714549076 500.6456973526586Q1835.9702769786797 500.6456973526586 1828.1311444706337 491.0739263926993Q1820.2920119625876 481.4810256955216 1820.2920119625876 461.93601876845247Q1820.2920119625876 442.3910118413833 1829.504577389833 432.12195955321505Q1838.7171428170784 421.85290726504684 1852.6205099068204 421.85290726504684Q1866.5450067337813 421.85290726504684 1875.060290832818 431.74162428328293L1875.060290832818 431.74162428328293L1876.5816319125468 425.80416812489756Q1877.342302452411 423.5221565053046 1879.3284977509459 423.5221565053046L1879.3284977509459 423.5221565053046L1897.8804070287476 423.5221565053046Q1900.1624186483402 423.5221565053046 1900.1624186483402 425.80416812489756L1900.1624186483402 425.80416812489756L1900.1624186483402 433.70668984459905Q1900.1624186483402 435.988701464192 1897.8804070287476 435.988701464192L1897.8804070287476 435.988701464192ZM1872.4824628921667 470.3879136558337L1872.4824628921667 470.3879136558337L1872.4824628921667 443.2995905417768Q1871.8697005128313 442.3910118413833 1870.580786542506 441.0175789221838Q1869.2918725721804 439.64414600298437 1864.9602764423973 437.44665333226527Q1860.6075505753963 435.2280309243277 1855.5998028546226 435.2280309243277L1855.5998028546226 435.2280309243277Q1847.5282432371735 435.2280309243277 1842.5204955164002 441.2500060315868Q1837.491618058408 447.25085140162753 1837.491618058408 460.49919663759766Q1837.491618058408 473.7264121363493 1841.1470625972008 480.6569659440019Q1844.8025071359932 487.5663900144361 1855.2828567963459 487.5663900144361L1855.2828567963459 487.5663900144361Q1861.9809834945956 487.5663900144361 1867.2422880619904 482.85445861472107Q1872.4824628921667 478.142527215006 1872.4824628921667 470.3879136558337Z " fill="#000000" transform="matrix(0.46048696606112505,0,0,0.460486966061125,0,88.01911854221734)"/></g></svg>